%TF.GenerationSoftware,KiCad,Pcbnew,10.0.1*%
%TF.CreationDate,2026-06-17T14:41:47-04:00*%
%TF.ProjectId,mood_star_keychain,6d6f6f64-5f73-4746-9172-5f6b65796368,rev?*%
%TF.SameCoordinates,Original*%
%TF.FileFunction,Paste,Top*%
%TF.FilePolarity,Positive*%
%FSLAX46Y46*%
G04 Gerber Fmt 4.6, Leading zero omitted, Abs format (unit mm)*
G04 Created by KiCad (PCBNEW 10.0.1) date 2026-06-17 14:41:47*
%MOMM*%
%LPD*%
G01*
G04 APERTURE LIST*
G04 Aperture macros list*
%AMRoundRect*
0 Rectangle with rounded corners*
0 $1 Rounding radius*
0 $2 $3 $4 $5 $6 $7 $8 $9 X,Y pos of 4 corners*
0 Add a 4 corners polygon primitive as box body*
4,1,4,$2,$3,$4,$5,$6,$7,$8,$9,$2,$3,0*
0 Add four circle primitives for the rounded corners*
1,1,$1+$1,$2,$3*
1,1,$1+$1,$4,$5*
1,1,$1+$1,$6,$7*
1,1,$1+$1,$8,$9*
0 Add four rect primitives between the rounded corners*
20,1,$1+$1,$2,$3,$4,$5,0*
20,1,$1+$1,$4,$5,$6,$7,0*
20,1,$1+$1,$6,$7,$8,$9,0*
20,1,$1+$1,$8,$9,$2,$3,0*%
G04 Aperture macros list end*
%ADD10R,1.500000X0.900000*%
%ADD11R,0.900000X1.500000*%
%ADD12R,1.050000X1.050000*%
%ADD13RoundRect,0.140000X-0.140000X-0.170000X0.140000X-0.170000X0.140000X0.170000X-0.140000X0.170000X0*%
%ADD14RoundRect,0.090000X-0.660000X-0.360000X0.660000X-0.360000X0.660000X0.360000X-0.660000X0.360000X0*%
%ADD15RoundRect,0.200000X-0.200000X-0.275000X0.200000X-0.275000X0.200000X0.275000X-0.200000X0.275000X0*%
%ADD16RoundRect,0.150000X-0.150000X0.825000X-0.150000X-0.825000X0.150000X-0.825000X0.150000X0.825000X0*%
%ADD17RoundRect,0.225000X-0.250000X0.225000X-0.250000X-0.225000X0.250000X-0.225000X0.250000X0.225000X0*%
%ADD18RoundRect,0.150000X0.825000X0.150000X-0.825000X0.150000X-0.825000X-0.150000X0.825000X-0.150000X0*%
%ADD19RoundRect,0.200000X0.200000X0.275000X-0.200000X0.275000X-0.200000X-0.275000X0.200000X-0.275000X0*%
%ADD20RoundRect,0.225000X0.225000X0.250000X-0.225000X0.250000X-0.225000X-0.250000X0.225000X-0.250000X0*%
%ADD21RoundRect,0.225000X-0.225000X-0.250000X0.225000X-0.250000X0.225000X0.250000X-0.225000X0.250000X0*%
%ADD22RoundRect,0.200000X0.275000X-0.200000X0.275000X0.200000X-0.275000X0.200000X-0.275000X-0.200000X0*%
G04 APERTURE END LIST*
D10*
%TO.C,U1*%
X184500000Y-49840000D03*
X184500000Y-51110000D03*
X184500000Y-52380000D03*
X184500000Y-53650000D03*
X184500000Y-54920000D03*
X184500000Y-56190000D03*
X184500000Y-57460000D03*
X184500000Y-58730000D03*
X184500000Y-60000000D03*
X184500000Y-61270000D03*
X184500000Y-62540000D03*
X184500000Y-63810000D03*
X184500000Y-65080000D03*
X184500000Y-66350000D03*
D11*
X187540000Y-67600000D03*
X188810000Y-67600000D03*
X190080000Y-67600000D03*
X191350000Y-67600000D03*
X192620000Y-67600000D03*
X193890000Y-67600000D03*
X195160000Y-67600000D03*
X196430000Y-67600000D03*
X197700000Y-67600000D03*
X198970000Y-67600000D03*
D10*
X202000000Y-66350000D03*
X202000000Y-65080000D03*
X202000000Y-63810000D03*
X202000000Y-62540000D03*
X202000000Y-61270000D03*
X202000000Y-60000000D03*
X202000000Y-58730000D03*
X202000000Y-57460000D03*
X202000000Y-56190000D03*
X202000000Y-54920000D03*
X202000000Y-53650000D03*
X202000000Y-52380000D03*
X202000000Y-51110000D03*
X202000000Y-49840000D03*
D12*
X191045000Y-55655000D03*
X191045000Y-57180000D03*
X191045000Y-58705000D03*
X192570000Y-55655000D03*
X192570000Y-57180000D03*
X192570000Y-58705000D03*
X194095000Y-55655000D03*
X194095000Y-57180000D03*
X194095000Y-58705000D03*
%TD*%
D13*
%TO.C,C5*%
X235540000Y-72000000D03*
X236500000Y-72000000D03*
%TD*%
D14*
%TO.C,D3*%
X217100000Y-113700000D03*
X217100000Y-117000000D03*
X222000000Y-117000000D03*
X222000000Y-113700000D03*
%TD*%
D15*
%TO.C,R3*%
X192350000Y-94000000D03*
X194000000Y-94000000D03*
%TD*%
D14*
%TO.C,D4*%
X233600000Y-64000000D03*
X233600000Y-67300000D03*
X238500000Y-67300000D03*
X238500000Y-64000000D03*
%TD*%
D16*
%TO.C,U4*%
X196310000Y-73025000D03*
X195040000Y-73025000D03*
X193770000Y-73025000D03*
X192500000Y-73025000D03*
X191230000Y-73025000D03*
X189960000Y-73025000D03*
X188690000Y-73025000D03*
X188690000Y-77975000D03*
X189960000Y-77975000D03*
X191230000Y-77975000D03*
X192500000Y-77975000D03*
X193770000Y-77975000D03*
X195040000Y-77975000D03*
X196310000Y-77975000D03*
%TD*%
D17*
%TO.C,C1*%
X177000000Y-51500000D03*
X177000000Y-53050000D03*
%TD*%
D13*
%TO.C,C10*%
X150040000Y-61500000D03*
X151000000Y-61500000D03*
%TD*%
%TO.C,C8*%
X166500000Y-121500000D03*
X167460000Y-121500000D03*
%TD*%
%TO.C,C9*%
X219020000Y-120000000D03*
X219980000Y-120000000D03*
%TD*%
D14*
%TO.C,D1*%
X150100000Y-64500000D03*
X150100000Y-67800000D03*
X155000000Y-67800000D03*
X155000000Y-64500000D03*
%TD*%
D15*
%TO.C,R2*%
X204850000Y-66500000D03*
X206500000Y-66500000D03*
%TD*%
D18*
%TO.C,U2*%
X194975000Y-91945000D03*
X194975000Y-90675000D03*
X194975000Y-89405000D03*
X194975000Y-88135000D03*
X194975000Y-86865000D03*
X194975000Y-85595000D03*
X194975000Y-84325000D03*
X194975000Y-83055000D03*
X190025000Y-83055000D03*
X190025000Y-84325000D03*
X190025000Y-85595000D03*
X190025000Y-86865000D03*
X190025000Y-88135000D03*
X190025000Y-89405000D03*
X190025000Y-90675000D03*
X190025000Y-91945000D03*
%TD*%
D14*
%TO.C,D2*%
X164600000Y-114700000D03*
X164600000Y-118000000D03*
X169500000Y-118000000D03*
X169500000Y-114700000D03*
%TD*%
D17*
%TO.C,C2*%
X180500000Y-51500000D03*
X180500000Y-53050000D03*
%TD*%
D19*
%TO.C,R4*%
X210000000Y-70000000D03*
X208350000Y-70000000D03*
%TD*%
D20*
%TO.C,C3*%
X182275000Y-108000000D03*
X180725000Y-108000000D03*
%TD*%
D21*
%TO.C,C4*%
X183000000Y-98000000D03*
X184550000Y-98000000D03*
%TD*%
D22*
%TO.C,R1*%
X187000000Y-91650000D03*
X187000000Y-90000000D03*
%TD*%
D13*
%TO.C,C7*%
X197500000Y-80000000D03*
X198460000Y-80000000D03*
%TD*%
M02*
