%TF.GenerationSoftware,KiCad,Pcbnew,10.0.1*%
%TF.CreationDate,2026-06-17T14:41:47-04:00*%
%TF.ProjectId,mood_star_keychain,6d6f6f64-5f73-4746-9172-5f6b65796368,rev?*%
%TF.SameCoordinates,Original*%
%TF.FileFunction,Copper,L1,Top*%
%TF.FilePolarity,Positive*%
%FSLAX46Y46*%
G04 Gerber Fmt 4.6, Leading zero omitted, Abs format (unit mm)*
G04 Created by KiCad (PCBNEW 10.0.1) date 2026-06-17 14:41:47*
%MOMM*%
%LPD*%
G01*
G04 APERTURE LIST*
G04 Aperture macros list*
%AMRoundRect*
0 Rectangle with rounded corners*
0 $1 Rounding radius*
0 $2 $3 $4 $5 $6 $7 $8 $9 X,Y pos of 4 corners*
0 Add a 4 corners polygon primitive as box body*
4,1,4,$2,$3,$4,$5,$6,$7,$8,$9,$2,$3,0*
0 Add four circle primitives for the rounded corners*
1,1,$1+$1,$2,$3*
1,1,$1+$1,$4,$5*
1,1,$1+$1,$6,$7*
1,1,$1+$1,$8,$9*
0 Add four rect primitives between the rounded corners*
20,1,$1+$1,$2,$3,$4,$5,0*
20,1,$1+$1,$4,$5,$6,$7,0*
20,1,$1+$1,$6,$7,$8,$9,0*
20,1,$1+$1,$8,$9,$2,$3,0*%
G04 Aperture macros list end*
%TA.AperFunction,SMDPad,CuDef*%
%ADD10R,1.500000X0.900000*%
%TD*%
%TA.AperFunction,SMDPad,CuDef*%
%ADD11R,0.900000X1.500000*%
%TD*%
%TA.AperFunction,SMDPad,CuDef*%
%ADD12R,1.050000X1.050000*%
%TD*%
%TA.AperFunction,HeatsinkPad*%
%ADD13C,0.600000*%
%TD*%
%TA.AperFunction,HeatsinkPad*%
%ADD14R,4.200000X4.200000*%
%TD*%
%TA.AperFunction,ComponentPad*%
%ADD15C,2.000000*%
%TD*%
%TA.AperFunction,SMDPad,CuDef*%
%ADD16RoundRect,0.140000X-0.140000X-0.170000X0.140000X-0.170000X0.140000X0.170000X-0.140000X0.170000X0*%
%TD*%
%TA.AperFunction,SMDPad,CuDef*%
%ADD17RoundRect,0.090000X-0.660000X-0.360000X0.660000X-0.360000X0.660000X0.360000X-0.660000X0.360000X0*%
%TD*%
%TA.AperFunction,SMDPad,CuDef*%
%ADD18RoundRect,0.200000X-0.200000X-0.275000X0.200000X-0.275000X0.200000X0.275000X-0.200000X0.275000X0*%
%TD*%
%TA.AperFunction,ComponentPad*%
%ADD19R,1.050000X1.500000*%
%TD*%
%TA.AperFunction,ComponentPad*%
%ADD20O,1.050000X1.500000*%
%TD*%
%TA.AperFunction,ComponentPad*%
%ADD21C,0.700000*%
%TD*%
%TA.AperFunction,ComponentPad*%
%ADD22O,0.900000X2.400000*%
%TD*%
%TA.AperFunction,ComponentPad*%
%ADD23O,0.900000X1.700000*%
%TD*%
%TA.AperFunction,SMDPad,CuDef*%
%ADD24RoundRect,0.150000X-0.150000X0.825000X-0.150000X-0.825000X0.150000X-0.825000X0.150000X0.825000X0*%
%TD*%
%TA.AperFunction,SMDPad,CuDef*%
%ADD25RoundRect,0.225000X-0.250000X0.225000X-0.250000X-0.225000X0.250000X-0.225000X0.250000X0.225000X0*%
%TD*%
%TA.AperFunction,SMDPad,CuDef*%
%ADD26RoundRect,0.150000X0.825000X0.150000X-0.825000X0.150000X-0.825000X-0.150000X0.825000X-0.150000X0*%
%TD*%
%TA.AperFunction,ComponentPad*%
%ADD27RoundRect,0.250000X-0.550000X-0.550000X0.550000X-0.550000X0.550000X0.550000X-0.550000X0.550000X0*%
%TD*%
%TA.AperFunction,ComponentPad*%
%ADD28C,1.600000*%
%TD*%
%TA.AperFunction,SMDPad,CuDef*%
%ADD29RoundRect,0.200000X0.200000X0.275000X-0.200000X0.275000X-0.200000X-0.275000X0.200000X-0.275000X0*%
%TD*%
%TA.AperFunction,SMDPad,CuDef*%
%ADD30RoundRect,0.225000X0.225000X0.250000X-0.225000X0.250000X-0.225000X-0.250000X0.225000X-0.250000X0*%
%TD*%
%TA.AperFunction,SMDPad,CuDef*%
%ADD31RoundRect,0.225000X-0.225000X-0.250000X0.225000X-0.250000X0.225000X0.250000X-0.225000X0.250000X0*%
%TD*%
%TA.AperFunction,SMDPad,CuDef*%
%ADD32RoundRect,0.200000X0.275000X-0.200000X0.275000X0.200000X-0.275000X0.200000X-0.275000X-0.200000X0*%
%TD*%
%TA.AperFunction,ViaPad*%
%ADD33C,0.600000*%
%TD*%
%TA.AperFunction,Conductor*%
%ADD34C,0.200000*%
%TD*%
G04 APERTURE END LIST*
D10*
%TO.P,U1,1,GND_1*%
%TO.N,GND*%
X184500000Y-49840000D03*
%TO.P,U1,2,VDD_2*%
%TO.N,+3.3V*%
X184500000Y-51110000D03*
%TO.P,U1,3,EN_3*%
%TO.N,Net-(SW1-2)*%
X184500000Y-52380000D03*
%TO.P,U1,4,SENSOR_VP_4*%
%TO.N,unconnected-(U1-SENSOR_VP-Pad4)*%
X184500000Y-53650000D03*
%TO.P,U1,5,SENSOR_VN_5*%
%TO.N,unconnected-(U1-SENSOR_VN-Pad5)*%
X184500000Y-54920000D03*
%TO.P,U1,6,IO34_6*%
%TO.N,unconnected-(U1-IO34-Pad6)*%
X184500000Y-56190000D03*
%TO.P,U1,7,IO35_7*%
%TO.N,unconnected-(U1-IO35-Pad7)*%
X184500000Y-57460000D03*
%TO.P,U1,8,IO32_8*%
%TO.N,unconnected-(U1-IO32-Pad8)*%
X184500000Y-58730000D03*
%TO.P,U1,9,IO33_9*%
%TO.N,unconnected-(U1-IO33-Pad9)*%
X184500000Y-60000000D03*
%TO.P,U1,10,IO25_10*%
%TO.N,unconnected-(U1-IO25-Pad10)*%
X184500000Y-61270000D03*
%TO.P,U1,11,IO26_11*%
%TO.N,unconnected-(U1-IO26-Pad11)*%
X184500000Y-62540000D03*
%TO.P,U1,12,IO27_12*%
%TO.N,unconnected-(U1-IO27-Pad12)*%
X184500000Y-63810000D03*
%TO.P,U1,13,IO14_13*%
%TO.N,unconnected-(U1-IO14-Pad13)*%
X184500000Y-65080000D03*
%TO.P,U1,14,IO12_14*%
%TO.N,unconnected-(U1-IO12-Pad14)*%
X184500000Y-66350000D03*
D11*
%TO.P,U1,15,GND_15*%
%TO.N,GND*%
X187540000Y-67600000D03*
%TO.P,U1,16,IO13_16*%
%TO.N,unconnected-(U1-IO13-Pad16)*%
X188810000Y-67600000D03*
%TO.P,U1,17,SHD/SD2_17*%
%TO.N,unconnected-(U1-SHD{slash}SD2-Pad17)*%
X190080000Y-67600000D03*
%TO.P,U1,18,SWP/SD3_18*%
%TO.N,unconnected-(U1-SWP{slash}SD3-Pad18)*%
X191350000Y-67600000D03*
%TO.P,U1,19,SCS/CMD_19*%
%TO.N,unconnected-(U1-SCS{slash}CMD-Pad19)*%
X192620000Y-67600000D03*
%TO.P,U1,20,SCK/CLK_20*%
%TO.N,unconnected-(U1-SCK{slash}CLK-Pad20)*%
X193890000Y-67600000D03*
%TO.P,U1,21,SDO/SD0_21*%
%TO.N,unconnected-(U1-SDO{slash}SD0-Pad21)*%
X195160000Y-67600000D03*
%TO.P,U1,22,SDI/SD1_22*%
%TO.N,unconnected-(U1-SDI{slash}SD1-Pad22)*%
X196430000Y-67600000D03*
%TO.P,U1,23,IO15_23*%
%TO.N,unconnected-(U1-IO15-Pad23)*%
X197700000Y-67600000D03*
%TO.P,U1,24,IO2_24*%
%TO.N,unconnected-(U1-IO2-Pad24)*%
X198970000Y-67600000D03*
D10*
%TO.P,U1,25,IO0_25*%
%TO.N,Net-(SW2-2)*%
X202000000Y-66350000D03*
%TO.P,U1,26,IO4_26*%
%TO.N,unconnected-(U1-IO4-Pad26)*%
X202000000Y-65080000D03*
%TO.P,U1,27,IO16_27*%
%TO.N,unconnected-(U1-IO16-Pad27)*%
X202000000Y-63810000D03*
%TO.P,U1,28,IO17_28*%
%TO.N,unconnected-(U1-IO17-Pad28)*%
X202000000Y-62540000D03*
%TO.P,U1,29,IO5_29*%
%TO.N,unconnected-(U1-IO5-Pad29)*%
X202000000Y-61270000D03*
%TO.P,U1,30,IO18_30*%
%TO.N,Net-(SW3-2)*%
X202000000Y-60000000D03*
%TO.P,U1,31,IO19_31*%
%TO.N,Net-(SW4-2)*%
X202000000Y-58730000D03*
%TO.P,U1,32,NC_32*%
%TO.N,unconnected-(U1-NC-Pad32)*%
X202000000Y-57460000D03*
%TO.P,U1,33,IO21_33*%
%TO.N,unconnected-(U1-IO21-Pad33)*%
X202000000Y-56190000D03*
%TO.P,U1,34,RXD0/IO3_34*%
%TO.N,Net-(U1-RXD0{slash}IO3)*%
X202000000Y-54920000D03*
%TO.P,U1,35,TXD0/IO1_35*%
%TO.N,Net-(U1-TXD0{slash}IO1)*%
X202000000Y-53650000D03*
%TO.P,U1,36,IO22_36*%
%TO.N,unconnected-(U1-IO22-Pad36)*%
X202000000Y-52380000D03*
%TO.P,U1,37,IO23_37*%
%TO.N,Net-(U1-IO23)*%
X202000000Y-51110000D03*
%TO.P,U1,38,GND_38*%
%TO.N,GND*%
X202000000Y-49840000D03*
D12*
%TO.P,U1,39,GND_39*%
X191045000Y-55655000D03*
D13*
X191045000Y-56417500D03*
D12*
X191045000Y-57180000D03*
D13*
X191045000Y-57942500D03*
D12*
X191045000Y-58705000D03*
D13*
X191807500Y-55655000D03*
X191807500Y-57180000D03*
X191807500Y-58705000D03*
D12*
X192570000Y-55655000D03*
D13*
X192570000Y-56417500D03*
D12*
X192570000Y-57180000D03*
D14*
X192570000Y-57180000D03*
D13*
X192570000Y-57942500D03*
D12*
X192570000Y-58705000D03*
D13*
X193332500Y-55655000D03*
X193332500Y-57180000D03*
X193332500Y-58705000D03*
D12*
X194095000Y-55655000D03*
D13*
X194095000Y-56417500D03*
D12*
X194095000Y-57180000D03*
D13*
X194095000Y-57942500D03*
D12*
X194095000Y-58705000D03*
%TD*%
D15*
%TO.P,SW4,1,1_1*%
%TO.N,Net-(SW4-2)*%
X200500000Y-73000000D03*
X207000000Y-73000000D03*
%TO.P,SW4,2,4_2*%
%TO.N,GND*%
X200500000Y-77500000D03*
X207000000Y-77500000D03*
%TD*%
D16*
%TO.P,C5,1*%
%TO.N,VBUS*%
X235540000Y-72000000D03*
%TO.P,C5,2*%
%TO.N,GND*%
X236500000Y-72000000D03*
%TD*%
D17*
%TO.P,D3,1,VDD_1*%
%TO.N,VBUS*%
X217100000Y-113700000D03*
%TO.P,D3,2,DOUT_2*%
%TO.N,Net-(D3-DOUT)*%
X217100000Y-117000000D03*
%TO.P,D3,3,VSS_3*%
%TO.N,GND*%
X222000000Y-117000000D03*
%TO.P,D3,4,DIN_4*%
%TO.N,Net-(D2-DOUT)*%
X222000000Y-113700000D03*
%TD*%
D18*
%TO.P,R3,1*%
%TO.N,Net-(P1-CC)*%
X192350000Y-94000000D03*
%TO.P,R3,2*%
%TO.N,GND*%
X194000000Y-94000000D03*
%TD*%
D17*
%TO.P,D4,1,VDD_1*%
%TO.N,VBUS*%
X233600000Y-64000000D03*
%TO.P,D4,2,DOUT_2*%
%TO.N,unconnected-(D4-DOUT-Pad2)*%
X233600000Y-67300000D03*
%TO.P,D4,3,VSS_3*%
%TO.N,GND*%
X238500000Y-67300000D03*
%TO.P,D4,4,DIN_4*%
%TO.N,Net-(D3-DOUT)*%
X238500000Y-64000000D03*
%TD*%
D19*
%TO.P,U3,1,GND_1*%
%TO.N,GND*%
X181060200Y-103030000D03*
D20*
%TO.P,U3,2,VI_2*%
%TO.N,VBUS*%
X182330200Y-103030000D03*
%TO.P,U3,3,VO_3*%
%TO.N,+3.3V*%
X183600200Y-103030000D03*
%TD*%
D21*
%TO.P,P1,A1,GND_A1*%
%TO.N,GND*%
X190325000Y-99585000D03*
%TO.P,P1,A4,VBUS_A4*%
%TO.N,VBUS*%
X191175000Y-99585000D03*
%TO.P,P1,A5,CC_A5*%
%TO.N,Net-(P1-CC)*%
X192025000Y-99585000D03*
%TO.P,P1,A6,D+_A6*%
%TO.N,Net-(P1-D+)*%
X192875000Y-99585000D03*
%TO.P,P1,A7,D-_A7*%
%TO.N,Net-(P1-D-)*%
X193725000Y-99585000D03*
%TO.P,P1,A8*%
%TO.N,N/C*%
X194575000Y-99585000D03*
%TO.P,P1,A9,VBUS_A9*%
%TO.N,VBUS*%
X195425000Y-99585000D03*
%TO.P,P1,A12,GND_A12*%
%TO.N,GND*%
X196275000Y-99585000D03*
%TO.P,P1,B1,GND_B1*%
X196275000Y-100935000D03*
%TO.P,P1,B4,VBUS_B4*%
%TO.N,VBUS*%
X195425000Y-100935000D03*
%TO.P,P1,B5,VCONN_B5*%
%TO.N,unconnected-(P1-VCONN-PadB5)*%
X194575000Y-100935000D03*
%TO.P,P1,B6*%
%TO.N,N/C*%
X193725000Y-100935000D03*
%TO.P,P1,B7*%
X192875000Y-100935000D03*
%TO.P,P1,B8*%
X192025000Y-100935000D03*
%TO.P,P1,B9,VBUS_B9*%
%TO.N,VBUS*%
X191175000Y-100935000D03*
%TO.P,P1,B12,GND_B12*%
%TO.N,GND*%
X190325000Y-100935000D03*
D22*
%TO.P,P1,SH,SHIELD_SH*%
X188975000Y-100565000D03*
D23*
X188975000Y-103945000D03*
D22*
X197625000Y-100565000D03*
D23*
X197625000Y-103945000D03*
%TD*%
D24*
%TO.P,U4,1*%
%TO.N,GND*%
X196310000Y-73025000D03*
%TO.P,U4,2*%
%TO.N,Net-(R4-Pad2)*%
X195040000Y-73025000D03*
%TO.P,U4,3*%
%TO.N,Net-(D1-DIN)*%
X193770000Y-73025000D03*
%TO.P,U4,4*%
%TO.N,VBUS*%
X192500000Y-73025000D03*
%TO.P,U4,5*%
%TO.N,unconnected-(U4-Pad5)*%
X191230000Y-73025000D03*
%TO.P,U4,6*%
%TO.N,unconnected-(U4-Pad6)*%
X189960000Y-73025000D03*
%TO.P,U4,7,GND_7*%
%TO.N,GND*%
X188690000Y-73025000D03*
%TO.P,U4,8*%
%TO.N,unconnected-(U4-Pad8)*%
X188690000Y-77975000D03*
%TO.P,U4,9*%
%TO.N,unconnected-(U4-Pad9)*%
X189960000Y-77975000D03*
%TO.P,U4,10*%
%TO.N,VBUS*%
X191230000Y-77975000D03*
%TO.P,U4,11*%
%TO.N,unconnected-(U4-Pad11)*%
X192500000Y-77975000D03*
%TO.P,U4,12*%
%TO.N,unconnected-(U4-Pad12)*%
X193770000Y-77975000D03*
%TO.P,U4,13*%
%TO.N,VBUS*%
X195040000Y-77975000D03*
%TO.P,U4,14,VCC_14*%
X196310000Y-77975000D03*
%TD*%
D25*
%TO.P,C1,1*%
%TO.N,GND*%
X177000000Y-51500000D03*
%TO.P,C1,2*%
%TO.N,+3.3V*%
X177000000Y-53050000D03*
%TD*%
D16*
%TO.P,C10,1*%
%TO.N,VBUS*%
X150040000Y-61500000D03*
%TO.P,C10,2*%
%TO.N,Net-(C10-Pad2)*%
X151000000Y-61500000D03*
%TD*%
%TO.P,C8,1*%
%TO.N,VBUS*%
X166500000Y-121500000D03*
%TO.P,C8,2*%
%TO.N,GND*%
X167460000Y-121500000D03*
%TD*%
D15*
%TO.P,SW3,1,1_1*%
%TO.N,Net-(SW3-2)*%
X200500000Y-83500000D03*
X207000000Y-83500000D03*
%TO.P,SW3,2,4_2*%
%TO.N,GND*%
X200500000Y-88000000D03*
X207000000Y-88000000D03*
%TD*%
D16*
%TO.P,C9,1*%
%TO.N,VBUS*%
X219020000Y-120000000D03*
%TO.P,C9,2*%
%TO.N,GND*%
X219980000Y-120000000D03*
%TD*%
D17*
%TO.P,D1,1,VDD_1*%
%TO.N,VBUS*%
X150100000Y-64500000D03*
%TO.P,D1,2,DOUT_2*%
%TO.N,Net-(D1-DOUT)*%
X150100000Y-67800000D03*
%TO.P,D1,3,VSS_3*%
%TO.N,GND*%
X155000000Y-67800000D03*
%TO.P,D1,4,DIN_4*%
%TO.N,Net-(D1-DIN)*%
X155000000Y-64500000D03*
%TD*%
D15*
%TO.P,SW1,1,1_1*%
%TO.N,Net-(SW1-2)*%
X178000000Y-83500000D03*
X184500000Y-83500000D03*
%TO.P,SW1,2,3_2*%
%TO.N,GND*%
X178000000Y-88000000D03*
X184500000Y-88000000D03*
%TD*%
D18*
%TO.P,R2,1*%
%TO.N,Net-(SW2-2)*%
X204850000Y-66500000D03*
%TO.P,R2,2*%
%TO.N,+3.3V*%
X206500000Y-66500000D03*
%TD*%
D26*
%TO.P,U2,1,GND_1*%
%TO.N,GND*%
X194975000Y-91945000D03*
%TO.P,U2,2,TXD_2*%
%TO.N,Net-(U1-TXD0{slash}IO1)*%
X194975000Y-90675000D03*
%TO.P,U2,3,RXD_3*%
%TO.N,Net-(U1-RXD0{slash}IO3)*%
X194975000Y-89405000D03*
%TO.P,U2,4,V3_4*%
%TO.N,unconnected-(U2-V3-Pad4)*%
X194975000Y-88135000D03*
%TO.P,U2,5,UD+_5*%
%TO.N,Net-(P1-D+)*%
X194975000Y-86865000D03*
%TO.P,U2,6,UD-_6*%
%TO.N,Net-(P1-D-)*%
X194975000Y-85595000D03*
%TO.P,U2,7,NC_7*%
%TO.N,unconnected-(U2-NC-Pad7)*%
X194975000Y-84325000D03*
%TO.P,U2,8,NC_8*%
%TO.N,unconnected-(U2-NC-Pad8)*%
X194975000Y-83055000D03*
%TO.P,U2,9,~{CTS}_9*%
%TO.N,unconnected-(U2-~{CTS}-Pad9)*%
X190025000Y-83055000D03*
%TO.P,U2,10,~{DSR}_10*%
%TO.N,unconnected-(U2-~{DSR}-Pad10)*%
X190025000Y-84325000D03*
%TO.P,U2,11,~{RI}_11*%
%TO.N,unconnected-(U2-~{RI}-Pad11)*%
X190025000Y-85595000D03*
%TO.P,U2,12,~{DCD}_12*%
%TO.N,unconnected-(U2-~{DCD}-Pad12)*%
X190025000Y-86865000D03*
%TO.P,U2,13,~{DTR}_13*%
%TO.N,unconnected-(U2-~{DTR}-Pad13)*%
X190025000Y-88135000D03*
%TO.P,U2,14,~{RTS}_14*%
%TO.N,unconnected-(U2-~{RTS}-Pad14)*%
X190025000Y-89405000D03*
%TO.P,U2,15,R232_15*%
%TO.N,unconnected-(U2-R232-Pad15)*%
X190025000Y-90675000D03*
%TO.P,U2,16,VCC_16*%
%TO.N,+3.3V*%
X190025000Y-91945000D03*
%TD*%
D17*
%TO.P,D2,1,VDD_1*%
%TO.N,VBUS*%
X164600000Y-114700000D03*
%TO.P,D2,2,DOUT_2*%
%TO.N,Net-(D2-DOUT)*%
X164600000Y-118000000D03*
%TO.P,D2,3,VSS_3*%
%TO.N,GND*%
X169500000Y-118000000D03*
%TO.P,D2,4,DIN_4*%
%TO.N,Net-(D1-DOUT)*%
X169500000Y-114700000D03*
%TD*%
D25*
%TO.P,C2,1*%
%TO.N,GND*%
X180500000Y-51500000D03*
%TO.P,C2,2*%
%TO.N,+3.3V*%
X180500000Y-53050000D03*
%TD*%
D27*
%TO.P,C6,1*%
%TO.N,Net-(C10-Pad2)*%
X159000000Y-61500000D03*
D28*
%TO.P,C6,2*%
%TO.N,GND*%
X161000000Y-61500000D03*
%TD*%
D15*
%TO.P,SW2,1,1_1*%
%TO.N,Net-(SW2-2)*%
X178000000Y-73000000D03*
X184500000Y-73000000D03*
%TO.P,SW2,2,4_2*%
%TO.N,GND*%
X178000000Y-77500000D03*
X184500000Y-77500000D03*
%TD*%
D29*
%TO.P,R4,1*%
%TO.N,Net-(U1-IO23)*%
X210000000Y-70000000D03*
%TO.P,R4,2*%
%TO.N,Net-(R4-Pad2)*%
X208350000Y-70000000D03*
%TD*%
D30*
%TO.P,C3,1*%
%TO.N,VBUS*%
X182275000Y-108000000D03*
%TO.P,C3,2*%
%TO.N,GND*%
X180725000Y-108000000D03*
%TD*%
D31*
%TO.P,C4,1*%
%TO.N,+3.3V*%
X183000000Y-98000000D03*
%TO.P,C4,2*%
%TO.N,GND*%
X184550000Y-98000000D03*
%TD*%
D32*
%TO.P,R1,1*%
%TO.N,+3.3V*%
X187000000Y-91650000D03*
%TO.P,R1,2*%
%TO.N,Net-(SW1-2)*%
X187000000Y-90000000D03*
%TD*%
D16*
%TO.P,C7,1*%
%TO.N,VBUS*%
X197500000Y-80000000D03*
%TO.P,C7,2*%
%TO.N,GND*%
X198460000Y-80000000D03*
%TD*%
D33*
%TO.N,Net-(D3-DOUT)*%
X218385200Y-116802400D03*
X218385200Y-95658100D03*
%TO.N,Net-(U1-RXD0{slash}IO3)*%
X197437700Y-87920000D03*
X197437700Y-54920000D03*
%TO.N,+3.3V*%
X182507900Y-51629700D03*
%TO.N,Net-(U1-TXD0{slash}IO1)*%
X198735000Y-88556100D03*
X198735000Y-53650000D03*
%TO.N,Net-(P1-D-)*%
X193725000Y-92790200D03*
%TO.N,Net-(SW1-2)*%
X185785700Y-52205000D03*
%TO.N,Net-(SW2-2)*%
X189874900Y-66072100D03*
%TO.N,Net-(SW3-2)*%
X199541800Y-60000000D03*
%TO.N,Net-(SW4-2)*%
X203865900Y-58730000D03*
%TD*%
%TO.N,Net-(D1-DOUT)*%
D34*
X150100000Y-67800000D02*
X169500000Y-87200000D01*
X169500000Y-87200000D02*
X169500000Y-114700000D01*
%TO.N,GND*%
X169500000Y-118000000D02*
X168722000Y-117222000D01*
X194975000Y-93025000D02*
X194975000Y-91945000D01*
X196275000Y-96275000D02*
X196275000Y-99585000D01*
X236500000Y-69300000D02*
X236500000Y-72000000D01*
X193332500Y-58705000D02*
X192570000Y-58705000D01*
X184500000Y-77500000D02*
X188690000Y-73310000D01*
X219980000Y-119020000D02*
X219980000Y-120000000D01*
X197625000Y-103945000D02*
X197625000Y-105096700D01*
X177000000Y-51500000D02*
X180500000Y-51500000D01*
X193332500Y-57180000D02*
X192570000Y-57180000D01*
X194000000Y-94000000D02*
X194975000Y-93025000D01*
X192570000Y-56417500D02*
X192570000Y-55655000D01*
X190907500Y-100260000D02*
X190278800Y-100888700D01*
X163511600Y-118511600D02*
X164255900Y-119255900D01*
X188975000Y-100565000D02*
X189955000Y-100565000D01*
X200500000Y-77500000D02*
X198460000Y-79540000D01*
X170725000Y-118000000D02*
X180725000Y-108000000D01*
X196275000Y-100935000D02*
X196645000Y-100565000D01*
X194095000Y-57942500D02*
X194095000Y-57180000D01*
X196310000Y-72634400D02*
X196310000Y-73025000D01*
X236500000Y-72000000D02*
X231000000Y-77500000D01*
X188690000Y-73310000D02*
X188690000Y-73025000D01*
X172507500Y-55992500D02*
X177000000Y-51500000D01*
X194921700Y-55655000D02*
X200736700Y-49840000D01*
X191807500Y-55655000D02*
X191045000Y-55655000D01*
X163511600Y-117479900D02*
X163511600Y-118511600D01*
X153941900Y-66741900D02*
X153941900Y-63977200D01*
X180725000Y-108000000D02*
X181509100Y-108784100D01*
X172507500Y-55992500D02*
X183654800Y-67139900D01*
X222000000Y-117000000D02*
X223483500Y-115516500D01*
X184550000Y-98000000D02*
X188740000Y-98000000D01*
X155143000Y-62776100D02*
X159723900Y-62776100D01*
X169500000Y-118000000D02*
X170725000Y-118000000D01*
X187540000Y-67600000D02*
X187540000Y-66548300D01*
X193332500Y-55655000D02*
X192570000Y-55655000D01*
X194095000Y-56417500D02*
X194095000Y-55655000D01*
X196645000Y-100565000D02*
X197625000Y-100565000D01*
X192327300Y-68651700D02*
X196310000Y-72634400D01*
X191045000Y-59531700D02*
X187540000Y-63036700D01*
X165215900Y-119255900D02*
X167460000Y-121500000D01*
X181509100Y-108784100D02*
X185287600Y-108784100D01*
X194095000Y-55655000D02*
X194921700Y-55655000D01*
X186196700Y-67139900D02*
X186788300Y-66548300D01*
X194095000Y-58705000D02*
X193332500Y-58705000D01*
X194975000Y-91945000D02*
X196555000Y-91945000D01*
X189955000Y-100565000D02*
X190278800Y-100888700D01*
X192570000Y-55655000D02*
X191807500Y-55655000D01*
X191807500Y-58705000D02*
X191045000Y-58705000D01*
X191045000Y-57180000D02*
X191045000Y-56417500D01*
X168722000Y-117222000D02*
X163769500Y-117222000D01*
X197625000Y-100565000D02*
X197320000Y-100260000D01*
X180500000Y-51500000D02*
X182160000Y-49840000D01*
X191045000Y-58705000D02*
X191045000Y-59531700D01*
X192570000Y-57942500D02*
X192570000Y-57180000D01*
X188975000Y-103945000D02*
X188975000Y-105096700D01*
X207000000Y-77500000D02*
X200500000Y-77500000D01*
X191807500Y-57180000D02*
X191045000Y-57180000D01*
X196555000Y-91945000D02*
X200500000Y-88000000D01*
X200500000Y-88000000D02*
X207000000Y-88000000D01*
X164255900Y-119255900D02*
X165215900Y-119255900D01*
X191045000Y-57942500D02*
X192570000Y-57942500D01*
X190278800Y-100888700D02*
X190325000Y-100935000D01*
X238500000Y-67300000D02*
X236500000Y-69300000D01*
X222000000Y-117000000D02*
X219980000Y-119020000D01*
X187540000Y-68651700D02*
X192327300Y-68651700D01*
X183654800Y-67139900D02*
X186196700Y-67139900D01*
X194095000Y-57180000D02*
X193332500Y-57180000D01*
X155000000Y-67800000D02*
X153941900Y-66741900D01*
X215566300Y-105096700D02*
X197625000Y-105096700D01*
X194000000Y-94000000D02*
X196275000Y-96275000D01*
X153941900Y-63977200D02*
X155143000Y-62776100D01*
X191045000Y-56417500D02*
X191045000Y-55655000D01*
X159723900Y-62776100D02*
X161000000Y-61500000D01*
X197320000Y-100260000D02*
X190907500Y-100260000D01*
X182160000Y-49840000D02*
X184500000Y-49840000D01*
X178000000Y-88000000D02*
X184500000Y-88000000D01*
X185287600Y-108784100D02*
X188975000Y-105096700D01*
X186788300Y-66548300D02*
X187540000Y-66548300D01*
X192570000Y-58705000D02*
X191807500Y-58705000D01*
X163769500Y-117222000D02*
X163511600Y-117479900D01*
X192570000Y-57180000D02*
X191807500Y-57180000D01*
X184500000Y-77500000D02*
X178000000Y-77500000D01*
X188740000Y-98000000D02*
X190325000Y-99585000D01*
X194095000Y-55655000D02*
X193332500Y-55655000D01*
X198460000Y-79540000D02*
X198460000Y-80000000D01*
X167000000Y-61500000D02*
X172507500Y-55992500D01*
X223483500Y-115516500D02*
X223483500Y-113013900D01*
X187540000Y-67600000D02*
X187540000Y-68651700D01*
X200736700Y-49840000D02*
X202000000Y-49840000D01*
X187540000Y-63036700D02*
X187540000Y-66548300D01*
X223483500Y-113013900D02*
X215566300Y-105096700D01*
X191045000Y-58705000D02*
X191045000Y-57942500D01*
X161000000Y-61500000D02*
X167000000Y-61500000D01*
X231000000Y-77500000D02*
X207000000Y-77500000D01*
%TO.N,VBUS*%
X233600000Y-64000000D02*
X235540000Y-65940000D01*
X223081800Y-113180200D02*
X223081800Y-114192700D01*
X150100000Y-64500000D02*
X150040000Y-64440000D01*
X223081800Y-114192700D02*
X219020000Y-118254500D01*
X181497400Y-107222400D02*
X182275000Y-108000000D01*
X182330200Y-104100400D02*
X182330200Y-103030000D01*
X192759300Y-90916500D02*
X192759300Y-83656000D01*
X182330200Y-104100400D02*
X184906600Y-104100400D01*
X195040000Y-77606600D02*
X192899600Y-75466200D01*
X163109900Y-116190100D02*
X163109900Y-118677900D01*
X205573100Y-113700000D02*
X194441700Y-102568500D01*
X219020000Y-118254500D02*
X219020000Y-120000000D01*
X196310000Y-77975000D02*
X195040000Y-77975000D01*
X150100000Y-64500000D02*
X155932800Y-70332800D01*
X197500000Y-79165000D02*
X197500000Y-80000000D01*
X194441700Y-102568500D02*
X194441600Y-102568600D01*
X178596800Y-107222400D02*
X181497400Y-107222400D01*
X189643800Y-102568400D02*
X191175000Y-101037200D01*
X155932800Y-70332800D02*
X190224400Y-70332800D01*
X164600000Y-114700000D02*
X163109900Y-116190100D01*
X195425000Y-101585200D02*
X194441700Y-102568500D01*
X196415300Y-80000000D02*
X197500000Y-80000000D01*
X195425000Y-100935000D02*
X195425000Y-101585200D01*
X186438600Y-102568400D02*
X189643800Y-102568400D01*
X150040000Y-64440000D02*
X150040000Y-61500000D01*
X170329400Y-115489800D02*
X178596800Y-107222400D01*
X231499600Y-76040400D02*
X235540000Y-72000000D01*
X182275000Y-108000000D02*
X182330200Y-107944800D01*
X192500000Y-75466200D02*
X191230000Y-76736200D01*
X192500000Y-72608400D02*
X192500000Y-73025000D01*
X190224400Y-70332800D02*
X192500000Y-72608400D01*
X198244600Y-76040400D02*
X231499600Y-76040400D01*
X182330200Y-107944800D02*
X182330200Y-104100400D01*
X163109900Y-118677900D02*
X165932000Y-121500000D01*
X191175000Y-99585000D02*
X191175000Y-92500800D01*
X196310000Y-77975000D02*
X198244600Y-76040400D01*
X191175000Y-92500800D02*
X192759300Y-90916500D01*
X196310000Y-77975000D02*
X197500000Y-79165000D01*
X165932000Y-121500000D02*
X166500000Y-121500000D01*
X192706400Y-102568600D02*
X191175000Y-101037200D01*
X191175000Y-101037200D02*
X191175000Y-100935000D01*
X235540000Y-65940000D02*
X235540000Y-72000000D01*
X217100000Y-113700000D02*
X218233300Y-112566700D01*
X192899600Y-75466200D02*
X192500000Y-75466200D01*
X217100000Y-113700000D02*
X205573100Y-113700000D01*
X191230000Y-76736200D02*
X191230000Y-77975000D01*
X195040000Y-77975000D02*
X195040000Y-77606600D01*
X165389800Y-115489800D02*
X170329400Y-115489800D01*
X184906600Y-104100400D02*
X186438600Y-102568400D01*
X222468300Y-112566700D02*
X223081800Y-113180200D01*
X194441600Y-102568600D02*
X192706400Y-102568600D01*
X218233300Y-112566700D02*
X222468300Y-112566700D01*
X192759300Y-83656000D02*
X196415300Y-80000000D01*
X192500000Y-73025000D02*
X192500000Y-75466200D01*
X164600000Y-114700000D02*
X165389800Y-115489800D01*
%TO.N,Net-(D1-DIN)*%
X191043300Y-69889900D02*
X160389900Y-69889900D01*
X193770000Y-73025000D02*
X193770000Y-72616600D01*
X193770000Y-72616600D02*
X191043300Y-69889900D01*
X160389900Y-69889900D02*
X155000000Y-64500000D01*
%TO.N,Net-(D2-DOUT)*%
X172496700Y-118790300D02*
X178630300Y-112656700D01*
X221225700Y-114474300D02*
X222000000Y-113700000D01*
X164600000Y-118000000D02*
X165390300Y-118790300D01*
X201974300Y-114474300D02*
X221225700Y-114474300D01*
X165390300Y-118790300D02*
X172496700Y-118790300D01*
X185000000Y-110500000D02*
X198000000Y-110500000D01*
X178630300Y-112656700D02*
X182843300Y-112656700D01*
X198000000Y-110500000D02*
X201974300Y-114474300D01*
X182843300Y-112656700D02*
X185000000Y-110500000D01*
%TO.N,Net-(D3-DOUT)*%
X217297600Y-116802400D02*
X217100000Y-117000000D01*
X239615600Y-69749824D02*
X239615600Y-65115600D01*
X218385200Y-116802400D02*
X217297600Y-116802400D01*
X238500000Y-64000000D02*
X239615600Y-65115600D01*
X218385200Y-90980224D02*
X239615600Y-69749824D01*
X218385200Y-95658100D02*
X218385200Y-90980224D01*
%TO.N,Net-(U1-RXD0{slash}IO3)*%
X202000000Y-54920000D02*
X197437700Y-54920000D01*
X195952700Y-89405000D02*
X197437700Y-87920000D01*
X194975000Y-89405000D02*
X195952700Y-89405000D01*
%TO.N,Net-(U1-IO23)*%
X210000000Y-70000000D02*
X208690900Y-68690900D01*
X205675000Y-53733300D02*
X203051700Y-51110000D01*
X207478500Y-68690900D02*
X205675000Y-66887400D01*
X208690900Y-68690900D02*
X207478500Y-68690900D01*
X205675000Y-66887400D02*
X205675000Y-53733300D01*
X202000000Y-51110000D02*
X203051700Y-51110000D01*
%TO.N,+3.3V*%
X190025000Y-91945000D02*
X187295000Y-91945000D01*
X183000000Y-98000000D02*
X183600200Y-98600200D01*
X183600200Y-98600200D02*
X183600200Y-103030000D01*
X189401600Y-49088300D02*
X202924300Y-49088300D01*
X206500000Y-52664000D02*
X206500000Y-66500000D01*
X177000000Y-53050000D02*
X180500000Y-53050000D01*
X183027600Y-51110000D02*
X184500000Y-51110000D01*
X183000000Y-96240000D02*
X187295000Y-91945000D01*
X181920300Y-51629700D02*
X180500000Y-53050000D01*
X182507900Y-51629700D02*
X183027600Y-51110000D01*
X183000000Y-98000000D02*
X183000000Y-96240000D01*
X184500000Y-51110000D02*
X187379900Y-51110000D01*
X182507900Y-51629700D02*
X181920300Y-51629700D01*
X202924300Y-49088300D02*
X206500000Y-52664000D01*
X187379900Y-51110000D02*
X189401600Y-49088300D01*
X187295000Y-91945000D02*
X187000000Y-91650000D01*
%TO.N,Net-(U1-TXD0{slash}IO1)*%
X196616100Y-90675000D02*
X198735000Y-88556100D01*
X200948300Y-53650000D02*
X198735000Y-53650000D01*
X202000000Y-53650000D02*
X200948300Y-53650000D01*
X194975000Y-90675000D02*
X196616100Y-90675000D01*
%TO.N,Net-(P1-D-)*%
X195961400Y-88770000D02*
X193952300Y-88770000D01*
X194975000Y-85595000D02*
X195381500Y-85595000D01*
X193697700Y-92762900D02*
X193725000Y-92790200D01*
X195381500Y-85595000D02*
X196257400Y-86470900D01*
X196257400Y-88474000D02*
X195961400Y-88770000D01*
X196257400Y-86470900D02*
X196257400Y-88474000D01*
X193697700Y-89024600D02*
X193697700Y-92762900D01*
X193952300Y-88770000D02*
X193697700Y-89024600D01*
%TO.N,Net-(P1-D+)*%
X193296000Y-92344400D02*
X193099300Y-92541100D01*
X192875000Y-95418200D02*
X192875000Y-99585000D01*
X193296000Y-88163000D02*
X193296000Y-92344400D01*
X193099300Y-95193900D02*
X192875000Y-95418200D01*
X194975000Y-86865000D02*
X194594000Y-86865000D01*
X193099300Y-92541100D02*
X193099300Y-95193900D01*
X194594000Y-86865000D02*
X193296000Y-88163000D01*
%TO.N,Net-(P1-CC)*%
X192025000Y-94325000D02*
X192025000Y-99585000D01*
X192350000Y-94000000D02*
X192025000Y-94325000D01*
%TO.N,Net-(R4-Pad2)*%
X195040000Y-73025000D02*
X195040000Y-73433500D01*
X208350000Y-73543300D02*
X208350000Y-70000000D01*
X207590100Y-74303200D02*
X208350000Y-73543300D01*
X195040000Y-73433500D02*
X195909700Y-74303200D01*
X195909700Y-74303200D02*
X207590100Y-74303200D01*
%TO.N,Net-(SW1-2)*%
X184500000Y-83500000D02*
X178000000Y-83500000D01*
X185726700Y-52205000D02*
X185551700Y-52380000D01*
X185785700Y-52205000D02*
X185726700Y-52205000D01*
X184500000Y-83500000D02*
X187000000Y-86000000D01*
X187000000Y-86000000D02*
X187000000Y-90000000D01*
X184500000Y-52380000D02*
X185551700Y-52380000D01*
%TO.N,Net-(SW2-2)*%
X184500000Y-73000000D02*
X178000000Y-73000000D01*
X202000000Y-66350000D02*
X203051700Y-66350000D01*
X200670400Y-66072100D02*
X200948300Y-66350000D01*
X204850000Y-66500000D02*
X203201700Y-66500000D01*
X203201700Y-66500000D02*
X203051700Y-66350000D01*
X202000000Y-66350000D02*
X200948300Y-66350000D01*
X189874900Y-66072100D02*
X200670400Y-66072100D01*
%TO.N,Net-(SW3-2)*%
X202000000Y-60000000D02*
X200948300Y-60000000D01*
X200500000Y-83500000D02*
X207000000Y-83500000D01*
X200948300Y-60000000D02*
X199541800Y-60000000D01*
%TO.N,Net-(SW4-2)*%
X202000000Y-58730000D02*
X203865900Y-58730000D01*
X200500000Y-73000000D02*
X207000000Y-73000000D01*
%TO.N,Net-(C10-Pad2)*%
X159000000Y-61500000D02*
X151000000Y-61500000D01*
%TD*%
M02*
