%TF.GenerationSoftware,KiCad,Pcbnew,10.0.1*%
%TF.CreationDate,2026-06-17T14:41:47-04:00*%
%TF.ProjectId,mood_star_keychain,6d6f6f64-5f73-4746-9172-5f6b65796368,rev?*%
%TF.SameCoordinates,Original*%
%TF.FileFunction,Profile,NP*%
%FSLAX46Y46*%
G04 Gerber Fmt 4.6, Leading zero omitted, Abs format (unit mm)*
G04 Created by KiCad (PCBNEW 10.0.1) date 2026-06-17 14:41:47*
%MOMM*%
%LPD*%
G01*
G04 APERTURE LIST*
%TA.AperFunction,Profile*%
%ADD10C,0.100000*%
%TD*%
G04 APERTURE END LIST*
D10*
X193500000Y-24500000D02*
X193900473Y-24519216D01*
X194277529Y-24552921D01*
X194634175Y-24602488D01*
X194973417Y-24669289D01*
X195298259Y-24754697D01*
X195611708Y-24860085D01*
X195916769Y-24986826D01*
X196216448Y-25136293D01*
X196513752Y-25309859D01*
X196811685Y-25508896D01*
X197113254Y-25734777D01*
X197421464Y-25988876D01*
X197739322Y-26272565D01*
X198069832Y-26587216D01*
X198416000Y-26934204D01*
X198633243Y-27164001D01*
X198845277Y-27406094D01*
X199057971Y-27671085D01*
X199277190Y-27969578D01*
X199508803Y-28312176D01*
X199758677Y-28709484D01*
X200032679Y-29172103D01*
X200336677Y-29710639D01*
X200676537Y-30335694D01*
X201058127Y-31057871D01*
X201487315Y-31887775D01*
X201969968Y-32836008D01*
X203119136Y-35129878D01*
X204552572Y-38024308D01*
X208374083Y-45793426D01*
X210823251Y-50823241D01*
X211125436Y-51441782D01*
X211419921Y-52018865D01*
X211699361Y-52541856D01*
X211956414Y-52998122D01*
X212183734Y-53375030D01*
X212373979Y-53659947D01*
X212452903Y-53763961D01*
X212519804Y-53840240D01*
X212573765Y-53887204D01*
X212613866Y-53903275D01*
X212765093Y-53916354D01*
X213074767Y-53953479D01*
X214094124Y-54089487D01*
X215521275Y-54290539D01*
X217205557Y-54535874D01*
X236728400Y-57410677D01*
X237549272Y-57538224D01*
X238319299Y-57672541D01*
X239040802Y-57814571D01*
X239716098Y-57965253D01*
X240347507Y-58125529D01*
X240937348Y-58296339D01*
X241487940Y-58478625D01*
X242001602Y-58673327D01*
X242480654Y-58881386D01*
X242927413Y-59103743D01*
X243344199Y-59341339D01*
X243733331Y-59595115D01*
X244097128Y-59866011D01*
X244437910Y-60154969D01*
X244757994Y-60462930D01*
X245059701Y-60790833D01*
X245248342Y-61020211D01*
X245423599Y-61257594D01*
X245585494Y-61502587D01*
X245734048Y-61754797D01*
X245869281Y-62013830D01*
X245991215Y-62279291D01*
X246099870Y-62550785D01*
X246195268Y-62827920D01*
X246277429Y-63110300D01*
X246346375Y-63397532D01*
X246402126Y-63689221D01*
X246444704Y-63984973D01*
X246474129Y-64284393D01*
X246490422Y-64587089D01*
X246493605Y-64892664D01*
X246483697Y-65200726D01*
X246460721Y-65510880D01*
X246424698Y-65822732D01*
X246375647Y-66135888D01*
X246313591Y-66449953D01*
X246238549Y-66764533D01*
X246150544Y-67079234D01*
X245935725Y-67707423D01*
X245669303Y-68331365D01*
X245351444Y-68947908D01*
X245173278Y-69252419D01*
X244982316Y-69553897D01*
X244778579Y-69851949D01*
X244562088Y-70146179D01*
X244231096Y-70515238D01*
X243549936Y-71222302D01*
X241303252Y-73484782D01*
X238154319Y-76602301D01*
X234435418Y-80243539D01*
X227651403Y-86889258D01*
X225495447Y-89029386D01*
X224594091Y-89956099D01*
X224515945Y-90053610D01*
X224481346Y-90101444D01*
X224465412Y-90126850D01*
X224450481Y-90153902D01*
X224436624Y-90183093D01*
X224423912Y-90214913D01*
X224412415Y-90249853D01*
X224402204Y-90288405D01*
X224393348Y-90331060D01*
X224385919Y-90378309D01*
X224379986Y-90430643D01*
X224375620Y-90488552D01*
X224372891Y-90552529D01*
X224371870Y-90623064D01*
X224372628Y-90700648D01*
X224375234Y-90785773D01*
X224379759Y-90878930D01*
X224386273Y-90980609D01*
X224394847Y-91091303D01*
X224405551Y-91211501D01*
X224433632Y-91482377D01*
X224471078Y-91797166D01*
X224518453Y-92159798D01*
X224576319Y-92574201D01*
X224645241Y-93044305D01*
X224725781Y-93574037D01*
X224818502Y-94167328D01*
X224923967Y-94828106D01*
X225042741Y-95560299D01*
X225175385Y-96367838D01*
X225484539Y-98224666D01*
X225855936Y-100430022D01*
X226294079Y-103015336D01*
X227388630Y-109451567D01*
X228063805Y-113529101D01*
X228286968Y-115008804D01*
X228444930Y-116209622D01*
X228546003Y-117201925D01*
X228598498Y-118056080D01*
X228610727Y-118842456D01*
X228591003Y-119631422D01*
X228558129Y-120305007D01*
X228516577Y-120886809D01*
X228464103Y-121389332D01*
X228433069Y-121614771D01*
X228398463Y-121825079D01*
X228360005Y-122021819D01*
X228317414Y-122206554D01*
X228270408Y-122380846D01*
X228218709Y-122546259D01*
X228162035Y-122704356D01*
X228100106Y-122856699D01*
X228032642Y-123004852D01*
X227959361Y-123150377D01*
X227825134Y-123391139D01*
X227677947Y-123629294D01*
X227518801Y-123863886D01*
X227348696Y-124093956D01*
X227168635Y-124318548D01*
X226979618Y-124536706D01*
X226782646Y-124747473D01*
X226578720Y-124949891D01*
X226368841Y-125143005D01*
X226154010Y-125325857D01*
X225935228Y-125497490D01*
X225713497Y-125656947D01*
X225489817Y-125803273D01*
X225265189Y-125935509D01*
X225040615Y-126052700D01*
X224817095Y-126153888D01*
X224543765Y-126252050D01*
X224231967Y-126335957D01*
X223886481Y-126405681D01*
X223512087Y-126461297D01*
X223113564Y-126502880D01*
X222695693Y-126530505D01*
X222263254Y-126544246D01*
X221821028Y-126544178D01*
X221373793Y-126530374D01*
X220926331Y-126502910D01*
X220483421Y-126461860D01*
X220049843Y-126407299D01*
X219630378Y-126339301D01*
X219229805Y-126257941D01*
X218852905Y-126163293D01*
X218504457Y-126055432D01*
X217279899Y-125495324D01*
X214837133Y-124281352D01*
X207766267Y-120654430D01*
X200230440Y-116699907D01*
X197206473Y-115076431D01*
X195168234Y-113943019D01*
X194825045Y-113747666D01*
X194492923Y-113565419D01*
X194179991Y-113400265D01*
X193894375Y-113256195D01*
X193644198Y-113137196D01*
X193437586Y-113047258D01*
X193282662Y-112990370D01*
X193227121Y-112975567D01*
X193187550Y-112970521D01*
X193131752Y-112983742D01*
X193028596Y-113022533D01*
X192690687Y-113171598D01*
X192194779Y-113407266D01*
X191561824Y-113719083D01*
X190812779Y-114096598D01*
X189968598Y-114529358D01*
X189050236Y-115006911D01*
X188078647Y-115518805D01*
X181261931Y-119126416D01*
X174224007Y-122854806D01*
X172154939Y-123931361D01*
X170237521Y-124889578D01*
X169402451Y-125291712D01*
X168685418Y-125625144D01*
X168113131Y-125876835D01*
X167712298Y-126033746D01*
X167332175Y-126152003D01*
X166927808Y-126254962D01*
X166503534Y-126342597D01*
X166063696Y-126414879D01*
X165612633Y-126471782D01*
X165154685Y-126513279D01*
X164694194Y-126539342D01*
X164235499Y-126549943D01*
X163782940Y-126545057D01*
X163340859Y-126524654D01*
X162913595Y-126488709D01*
X162505488Y-126437194D01*
X162120880Y-126370081D01*
X161764110Y-126287343D01*
X161439519Y-126188954D01*
X161151447Y-126074885D01*
X161151440Y-126074885D01*
X160944834Y-125975033D01*
X160743121Y-125865524D01*
X160546412Y-125746567D01*
X160354814Y-125618372D01*
X160168438Y-125481145D01*
X159987392Y-125335096D01*
X159811786Y-125180433D01*
X159641729Y-125017364D01*
X159477329Y-124846098D01*
X159318698Y-124666843D01*
X159165942Y-124479808D01*
X159019173Y-124285201D01*
X158878498Y-124083230D01*
X158744027Y-123874104D01*
X158615870Y-123658031D01*
X158494135Y-123435220D01*
X158378932Y-123205879D01*
X158270370Y-122970216D01*
X158168559Y-122728441D01*
X158073606Y-122480761D01*
X157985623Y-122227384D01*
X157904717Y-121968520D01*
X157830998Y-121704376D01*
X157764575Y-121435161D01*
X157705558Y-121161083D01*
X157654055Y-120882351D01*
X157610176Y-120599174D01*
X157574031Y-120311759D01*
X157545727Y-120020315D01*
X157525375Y-119725050D01*
X157513084Y-119426174D01*
X157508962Y-119123894D01*
X157521485Y-118672260D01*
X157557375Y-118104464D01*
X157614116Y-117443406D01*
X157689191Y-116711987D01*
X157780084Y-115933107D01*
X157884279Y-115129665D01*
X157999259Y-114324563D01*
X158122507Y-113540701D01*
X161918894Y-91097864D01*
X161927054Y-91045135D01*
X161929944Y-90990473D01*
X161926935Y-90933169D01*
X161917398Y-90872517D01*
X161900705Y-90807809D01*
X161876228Y-90738340D01*
X161843337Y-90663401D01*
X161801404Y-90582285D01*
X161749800Y-90494286D01*
X161687897Y-90398697D01*
X161615066Y-90294809D01*
X161530678Y-90181917D01*
X161434105Y-90059313D01*
X161324718Y-89926290D01*
X161201889Y-89782141D01*
X161064989Y-89626159D01*
X160746460Y-89275866D01*
X160364103Y-88869757D01*
X159912889Y-88402173D01*
X159387789Y-87867458D01*
X158783774Y-87259956D01*
X158095814Y-86574010D01*
X156447946Y-84944159D01*
X148426084Y-77008355D01*
X145738873Y-74314092D01*
X143767782Y-72295590D01*
X142388039Y-70822850D01*
X141474874Y-69765872D01*
X140903516Y-68994658D01*
X140549195Y-68379208D01*
X140397104Y-68053848D01*
X140259455Y-67722267D01*
X140136357Y-67385395D01*
X140027921Y-67044163D01*
X139934255Y-66699503D01*
X139855470Y-66352347D01*
X139791674Y-66003624D01*
X139742979Y-65654267D01*
X139709492Y-65305207D01*
X139691324Y-64957374D01*
X139688584Y-64611700D01*
X139701382Y-64269117D01*
X139729827Y-63930554D01*
X139774029Y-63596945D01*
X139834098Y-63269219D01*
X139910142Y-62948309D01*
X139954370Y-62794015D01*
X140004657Y-62642850D01*
X140061550Y-62494018D01*
X140125594Y-62346723D01*
X140197333Y-62200172D01*
X140277313Y-62053568D01*
X140366079Y-61906115D01*
X140464175Y-61757020D01*
X140572148Y-61605486D01*
X140690542Y-61450718D01*
X140819902Y-61291921D01*
X140960774Y-61128300D01*
X141113703Y-60959059D01*
X141279233Y-60783403D01*
X141457910Y-60600537D01*
X141650278Y-60409665D01*
X142059355Y-60013083D01*
X142252199Y-59832361D01*
X142441323Y-59662299D01*
X142629786Y-59502109D01*
X142820645Y-59351002D01*
X143016956Y-59208188D01*
X143221779Y-59072880D01*
X143438169Y-58944287D01*
X143669184Y-58821621D01*
X143917883Y-58704094D01*
X144187321Y-58590916D01*
X144480558Y-58481298D01*
X144800649Y-58374451D01*
X145150654Y-58269587D01*
X145533629Y-58165916D01*
X145952631Y-58062650D01*
X146410718Y-57958999D01*
X146910948Y-57854176D01*
X147456378Y-57747390D01*
X148050065Y-57637853D01*
X148695068Y-57524776D01*
X150151247Y-57284846D01*
X151849375Y-57021289D01*
X153813912Y-56727794D01*
X158640052Y-56025743D01*
X169272218Y-54465062D01*
X173871874Y-53776654D01*
X179759349Y-41837340D01*
X183538591Y-34246911D01*
X184877785Y-31646625D01*
X185934954Y-29691642D01*
X186773792Y-28268477D01*
X187457994Y-27263644D01*
X188051255Y-26563657D01*
X188617270Y-26055031D01*
X188916388Y-25824074D01*
X189197868Y-25616119D01*
X189464901Y-25430046D01*
X189720676Y-25264739D01*
X189968384Y-25119079D01*
X190211214Y-24991949D01*
X190452357Y-24882231D01*
X190695003Y-24788807D01*
X190942343Y-24710561D01*
X191197566Y-24646373D01*
X191463862Y-24595127D01*
X191744423Y-24555705D01*
X192042437Y-24526989D01*
X192361095Y-24507861D01*
X192703588Y-24497204D01*
X193073105Y-24493900D01*
X193500000Y-24500000D01*
M02*
