%TF.GenerationSoftware,KiCad,Pcbnew,10.0.1*%
%TF.CreationDate,2026-06-17T14:41:47-04:00*%
%TF.ProjectId,mood_star_keychain,6d6f6f64-5f73-4746-9172-5f6b65796368,rev?*%
%TF.SameCoordinates,Original*%
%TF.FileFunction,Soldermask,Bot*%
%TF.FilePolarity,Negative*%
%FSLAX46Y46*%
G04 Gerber Fmt 4.6, Leading zero omitted, Abs format (unit mm)*
G04 Created by KiCad (PCBNEW 10.0.1) date 2026-06-17 14:41:47*
%MOMM*%
%LPD*%
G01*
G04 APERTURE LIST*
G04 Aperture macros list*
%AMRoundRect*
0 Rectangle with rounded corners*
0 $1 Rounding radius*
0 $2 $3 $4 $5 $6 $7 $8 $9 X,Y pos of 4 corners*
0 Add a 4 corners polygon primitive as box body*
4,1,4,$2,$3,$4,$5,$6,$7,$8,$9,$2,$3,0*
0 Add four circle primitives for the rounded corners*
1,1,$1+$1,$2,$3*
1,1,$1+$1,$4,$5*
1,1,$1+$1,$6,$7*
1,1,$1+$1,$8,$9*
0 Add four rect primitives between the rounded corners*
20,1,$1+$1,$2,$3,$4,$5,0*
20,1,$1+$1,$4,$5,$6,$7,0*
20,1,$1+$1,$6,$7,$8,$9,0*
20,1,$1+$1,$8,$9,$2,$3,0*%
G04 Aperture macros list end*
%ADD10C,2.000000*%
%ADD11R,1.050000X1.500000*%
%ADD12O,1.050000X1.500000*%
%ADD13C,0.700000*%
%ADD14O,0.900000X2.400000*%
%ADD15O,0.900000X1.700000*%
%ADD16RoundRect,0.250000X-0.550000X-0.550000X0.550000X-0.550000X0.550000X0.550000X-0.550000X0.550000X0*%
%ADD17C,1.600000*%
G04 APERTURE END LIST*
D10*
%TO.C,SW4*%
X200500000Y-73000000D03*
X207000000Y-73000000D03*
X200500000Y-77500000D03*
X207000000Y-77500000D03*
%TD*%
D11*
%TO.C,U3*%
X181060200Y-103030000D03*
D12*
X182330200Y-103030000D03*
X183600200Y-103030000D03*
%TD*%
D13*
%TO.C,P1*%
X190325000Y-99585000D03*
X191175000Y-99585000D03*
X192025000Y-99585000D03*
X192875000Y-99585000D03*
X193725000Y-99585000D03*
X194575000Y-99585000D03*
X195425000Y-99585000D03*
X196275000Y-99585000D03*
X196275000Y-100935000D03*
X195425000Y-100935000D03*
X194575000Y-100935000D03*
X193725000Y-100935000D03*
X192875000Y-100935000D03*
X192025000Y-100935000D03*
X191175000Y-100935000D03*
X190325000Y-100935000D03*
D14*
X188975000Y-100565000D03*
D15*
X188975000Y-103945000D03*
D14*
X197625000Y-100565000D03*
D15*
X197625000Y-103945000D03*
%TD*%
D10*
%TO.C,SW3*%
X200500000Y-83500000D03*
X207000000Y-83500000D03*
X200500000Y-88000000D03*
X207000000Y-88000000D03*
%TD*%
%TO.C,SW1*%
X178000000Y-83500000D03*
X184500000Y-83500000D03*
X178000000Y-88000000D03*
X184500000Y-88000000D03*
%TD*%
D16*
%TO.C,C6*%
X159000000Y-61500000D03*
D17*
X161000000Y-61500000D03*
%TD*%
D10*
%TO.C,SW2*%
X178000000Y-73000000D03*
X184500000Y-73000000D03*
X178000000Y-77500000D03*
X184500000Y-77500000D03*
%TD*%
M02*
