M48
; DRILL file KiCad 10.0.1 date 2026-06-17T14:41:58
; FORMAT={-:-/ absolute / metric / decimal}
; #@! TF.CreationDate,2026-06-17T14:41:58-04:00
; #@! TF.GenerationSoftware,Kicad,Pcbnew,10.0.1
; #@! TF.FileFunction,Plated,1,2,PTH
FMAT,2
METRIC
; #@! TA.AperFunction,Plated,PTH,ViaDrill
T1C0.300
; #@! TA.AperFunction,Plated,PTH,ComponentDrill
T2C0.300
; #@! TA.AperFunction,Plated,PTH,ComponentDrill
T3C0.400
; #@! TA.AperFunction,Plated,PTH,ComponentDrill
T4C0.600
; #@! TA.AperFunction,Plated,PTH,ComponentDrill
T5C0.750
; #@! TA.AperFunction,Plated,PTH,ComponentDrill
T6C0.800
; #@! TA.AperFunction,Plated,PTH,ComponentDrill
T7C1.100
%
G90
G05
T1
X182.508Y-51.63
X185.786Y-52.205
X189.875Y-66.072
X193.725Y-92.79
X197.438Y-54.92
X197.438Y-87.92
X198.735Y-53.65
X198.735Y-88.556
X199.542Y-60.0
X203.866Y-58.73
X218.385Y-95.658
X218.385Y-116.802
T2
X191.045Y-56.417
X191.045Y-57.942
X191.808Y-55.655
X191.808Y-57.18
X191.808Y-58.705
X192.57Y-56.417
X192.57Y-57.942
X193.332Y-55.655
X193.332Y-57.18
X193.332Y-58.705
X194.095Y-56.417
X194.095Y-57.942
T3
X190.325Y-99.585
X190.325Y-100.935
X191.175Y-99.585
X191.175Y-100.935
X192.025Y-99.585
X192.025Y-100.935
X192.875Y-99.585
X192.875Y-100.935
X193.725Y-99.585
X193.725Y-100.935
X194.575Y-99.585
X194.575Y-100.935
X195.425Y-99.585
X195.425Y-100.935
X196.275Y-99.585
X196.275Y-100.935
T5
X181.06Y-103.03
X182.33Y-103.03
X183.6Y-103.03
T6
X159.0Y-61.5
X161.0Y-61.5
T7
X178.0Y-73.0
X178.0Y-77.5
X178.0Y-83.5
X178.0Y-88.0
X184.5Y-73.0
X184.5Y-77.5
X184.5Y-83.5
X184.5Y-88.0
X200.5Y-73.0
X200.5Y-77.5
X200.5Y-83.5
X200.5Y-88.0
X207.0Y-73.0
X207.0Y-77.5
X207.0Y-83.5
X207.0Y-88.0
T4
G00X188.975Y-99.815
M15
G01X188.975Y-101.315
M16
G05
G00X188.975Y-103.545
M15
G01X188.975Y-104.345
M16
G05
G00X197.625Y-99.815
M15
G01X197.625Y-101.315
M16
G05
G00X197.625Y-103.545
M15
G01X197.625Y-104.345
M16
G05
M30
